<?xml version="1.0" encoding="utf-8"?>
<!-- Generator: Adobe Illustrator 24.0.3, SVG Export Plug-In . SVG Version: 6.00 Build 0)  -->
<svg version="1.1" id="Livello_1" xmlns="http://www.w3.org/2000/svg" xmlns:xlink="http://www.w3.org/1999/xlink" x="0px" y="0px"
	 viewBox="0 0 848.37 576" style="enable-background:new 0 0 848.37 576;" xml:space="preserve">
<style type="text/css">
	.st0{fill:#F8F8F8;}
	.st1{fill:#EAEAEA;}
	.st2{fill:none;}
	.st3{opacity:0.72;fill:#FFFFFF;}
</style>
<path class="st0" d="M848.37-0.56v360.67c-119.17,0-224.82-57.89-290.37-147.08c-21.52-29.29-38.72-61.96-50.66-97.06
	C494.97,79.58,488.26,40.57,488.26,0v-0.56H848.37z"/>
<path class="st1" d="M848.37-0.56V267.9c-147.96,0-267.9-119.94-267.9-267.9v-0.56H848.37z"/>
<polygon class="st0" points="219.91,93.77 311.44,93.77 311.44,2.23 "/>
<polygon class="st1" points="312.56,93.77 404.09,93.77 404.09,2.23 "/>
<polygon class="st1" points="219.91,186.42 311.44,186.42 311.44,94.88 "/>
<polygon class="st0" points="312.56,186.42 404.09,186.42 404.09,94.88 "/>
<polygon class="st0" points="593.3,177.73 558,213.03 195.03,576 47.32,576 507.34,115.97 519.44,103.87 "/>
<polygon class="st0" points="314.56,186.42 0.28,500.69 0.28,313.83 127.69,186.42 "/>
<polygon class="st1" points="0.28,124.7 0.28,313.07 142.16,171.19 153.7,159.65 23.66,29.62 23.62,29.58 0.28,52.92 0.28,67.1 "/>
<polygon class="st1" points="779.22,493.25 696.47,576 522.58,576 692.27,406.31 692.41,406.45 779.04,493.07 779.04,493.08 "/>
<circle class="st0" cx="735.72" cy="449.76" r="61.26"/>
<rect x="780.28" y="510.14" class="st1" width="68.09" height="65.86"/>
<path class="st0" d="M0.28,67.1c4.7-14.37,12.81-27.18,23.38-37.48c16.68-16.28,39.48-26.3,64.62-26.3
	c51.13,0,92.58,41.45,92.58,92.58c0,31.03-15.27,58.49-38.7,75.29c-15.18,10.88-33.78,17.29-53.88,17.29
	c-41.07,0-75.89-26.75-88-63.78V67.1z"/>
<polyline class="st2" points="404.09,186.42 314.56,186.42 127.69,186.42 "/>
<polyline class="st2" points="0.28,576 0.28,500.69 0.28,313.83 0.28,313.07 0.28,124.7 0.28,67.1 0.28,52.92 0.28,-0.56 "/>
<polyline class="st2" points="848.37,-0.56 580.47,-0.56 488.26,-0.56 0.28,-0.56 -22.32,-0.56 "/>
<polyline class="st2" points="848.37,601.67 848.37,597.21 848.37,576 848.37,510.14 848.37,360.11 848.37,267.9 848.37,-0.56 "/>
<polyline class="st2" points="848.37,-267.91 848.37,-360.12 848.37,-404.65 "/>
<polyline class="st2" points="848.37,576 780.28,576 696.47,576 522.58,576 195.03,576 47.32,576 0.28,576 "/>
<line class="st2" x1="869.58" y1="576" x2="868.47" y2="576"/>
<rect x="0.28" y="-0.56" class="st3" width="848.09" height="576.56"/>
</svg>
