<?xml version="1.0" encoding="utf-8"?>
<!-- Generator: Adobe Illustrator 24.0.3, SVG Export Plug-In . SVG Version: 6.00 Build 0)  -->
<svg version="1.1" id="Capa_1" xmlns="http://www.w3.org/2000/svg" xmlns:xlink="http://www.w3.org/1999/xlink" x="0px" y="0px"
	 viewBox="0 0 1589.76 531.53" style="enable-background:new 0 0 1589.76 531.53;" xml:space="preserve">
<style type="text/css">
	.st0{fill:url(#SVGID_1_);}
	.st1{fill:#504881;}
	.st2{fill:#423E6D;}
	.st3{fill:#FFFFFF;}
	.st4{fill:#666666;}
</style>
<g>
	
		<linearGradient id="SVGID_1_" gradientUnits="userSpaceOnUse" x1="206.3152" y1="1008.1044" x2="218.5752" y2="1008.1044" gradientTransform="matrix(1 0 0 1 0 -486.0009)">
		<stop  offset="0" style="stop-color:#80D8FF"/>
		<stop  offset="1" style="stop-color:#EA80FC"/>
	</linearGradient>
	<path class="st0" d="M206.32,521.6c4.11,1.36,8.32,1.3,12.26,0H206.32z"/>
	<path class="st1" d="M412.46,106.6v65.85c0,139.71-70.88,270.54-188.81,346.71c-0.01,0.01-0.02,0.01-0.03,0.02
		c-1.61,1.04-3.3,1.85-5.05,2.42h-12.26c-1.7-0.56-3.37-1.36-5.01-2.42c-0.01-0.01-0.02-0.01-0.04-0.02
		c-19.4-12.53-37.52-26.54-54.27-41.82C82.58,418.54,38.53,340.85,20.98,255.83c-5.62-27.17-8.52-55.09-8.52-83.38V106.6
		c0-8.04,4.81-15.3,12.22-18.43l179.9-75.95c5.08-2.18,10.8-2.14,15.76,0l179.9,75.95C407.64,91.3,412.46,98.56,412.46,106.6z"/>
	<path class="st2" d="M304.35,319.98L146.99,477.34C82.58,418.54,38.53,340.85,20.98,255.83l109.61-109.61l0.36,0.36
		c-24.47,22.66-39.84,55.39-39.84,91.79c0,68.44,54.33,123.91,121.35,123.91c36.56,0,69.34-16.5,91.58-42.61L304.35,319.98z"/>
	<path class="st3" d="M290.06,305.69l15.34,8.66c1.08,0.61,1.35,2.05,0.57,3.01c-0.63,0.78-1.28,1.55-1.93,2.31
		c-22.24,26.11-55.02,42.61-91.58,42.61c-67.02,0-121.35-55.47-121.35-123.91c0-36.4,15.37-69.13,39.84-91.79
		c21.54-19.95,50.14-32.11,81.51-32.11c40.58,0,76.51,20.33,98.54,51.57c0.68,0.96,0.36,2.31-0.66,2.89l-46.81,26.42
		c-0.84,0.47-1.88,0.27-2.51-0.46c-11.83-13.78-29.2-22.47-48.55-22.47c-15.49,0-29.69,5.56-40.82,14.84
		c-14.5,12.09-23.76,30.49-23.76,51.1c0,36.42,28.91,65.94,64.58,65.94c16.46,0,31.48-6.29,42.88-16.63
		c0.64-0.58,1.58-0.7,2.33-0.27L290.06,305.69z"/>
</g>
<g>
	<path class="st4" d="M566.2,206.56c-11.26,0-19.99,4.23-26.17,12.7c-6.18,8.46-9.27,20.26-9.27,35.39
		c0,31.48,11.81,47.22,35.44,47.22c9.91,0,21.92-2.48,36.01-7.43v25.1c-11.59,4.83-24.52,7.24-38.81,7.24
		c-20.53,0-36.24-6.23-47.12-18.68s-16.32-30.33-16.32-53.64c0-14.68,2.67-27.53,8.01-38.57c5.34-11.04,13.02-19.5,23.03-25.39
		c10.01-5.89,21.74-8.83,35.19-8.83c13.71,0,27.49,3.32,41.33,9.95l-9.66,24.33c-5.28-2.51-10.59-4.7-15.93-6.57
		C576.59,207.49,571.35,206.56,566.2,206.56z"/>
	<path class="st4" d="M678.78,326.77c-17.38,0-30.96-4.8-40.75-14.39c-9.78-9.59-14.68-23.17-14.68-40.75
		c0-18.09,4.52-32.07,13.57-41.95s21.55-14.82,37.51-14.82c15.26,0,27.13,4.34,35.63,13.03c8.5,8.69,12.75,20.69,12.75,36.01v14.29
		h-69.62c0.32,8.37,2.8,14.9,7.43,19.6c4.63,4.7,11.14,7.05,19.5,7.05c6.5,0,12.65-0.68,18.44-2.03c5.79-1.35,11.84-3.51,18.15-6.47
		v22.79c-5.15,2.57-10.65,4.49-16.51,5.74C694.36,326.14,687.21,326.77,678.78,326.77z M674.63,235.82
		c-6.24,0-11.14,1.98-14.68,5.94c-3.54,3.96-5.57,9.57-6.08,16.85h41.33c-0.13-7.27-2.03-12.89-5.7-16.85
		S680.87,235.82,674.63,235.82z"/>
	<path class="st4" d="M807,214.86c3.99,0,7.31,0.29,9.95,0.87l-2.22,27.61c-2.38-0.64-5.28-0.97-8.69-0.97
		c-9.4,0-16.72,2.41-21.97,7.24c-5.25,4.83-7.87,11.59-7.87,20.28v54.94h-29.45V216.89h22.3l4.34,18.15h1.45
		c3.35-6.05,7.87-10.93,13.57-14.63C794.11,216.71,800.31,214.86,807,214.86z"/>
	<path class="st4" d="M882.03,303.31c5.15,0,11.33-1.13,18.54-3.38v21.92c-7.34,3.28-16.35,4.92-27.04,4.92
		c-11.78,0-20.36-2.98-25.73-8.93c-5.37-5.95-8.06-14.89-8.06-26.79V239h-14.1v-12.46l16.22-9.85l8.5-22.79h18.83v22.98h30.22V239
		h-30.22v52.04c0,4.18,1.17,7.27,3.52,9.27S878.16,303.31,882.03,303.31z"/>
	<path class="st4" d="M921.13,188.99c0-9.59,5.34-14.39,16.03-14.39s16.03,4.8,16.03,14.39c0,4.57-1.34,8.13-4.01,10.67
		c-2.67,2.54-6.68,3.81-12.02,3.81C926.47,203.47,921.13,198.64,921.13,188.99z M951.83,324.84h-29.45V216.89h29.45V324.84z"/>
	<path class="st4" d="M1042.4,239h-25.49v85.84h-29.45V239h-16.22v-14.19l16.22-7.92v-7.92c0-12.29,3.03-21.27,9.08-26.94
		s15.74-8.5,29.06-8.5c10.17,0,19.21,1.51,27.13,4.54l-7.53,21.63c-5.92-1.87-11.39-2.8-16.41-2.8c-4.18,0-7.21,1.24-9.08,3.72
		c-1.87,2.48-2.8,5.65-2.8,9.51v6.76h25.49V239z M1058.04,188.99c0-9.59,5.34-14.39,16.03-14.39c10.69,0,16.03,4.8,16.03,14.39
		c0,4.57-1.34,8.13-4.01,10.67c-2.67,2.54-6.68,3.81-12.02,3.81C1063.39,203.47,1058.04,198.64,1058.04,188.99z M1088.75,324.84
		h-29.45V216.89h29.45V324.84z"/>
	<path class="st4" d="M1163.39,326.77c-33.6,0-50.4-18.44-50.4-55.33c0-18.35,4.57-32.36,13.71-42.05
		c9.14-9.69,22.24-14.53,39.3-14.53c12.49,0,23.69,2.45,33.6,7.34l-8.69,22.79c-4.63-1.87-8.95-3.4-12.94-4.59
		s-7.98-1.79-11.97-1.79c-15.32,0-22.98,10.88-22.98,32.64c0,21.11,7.66,31.67,22.98,31.67c5.66,0,10.91-0.76,15.74-2.27
		c4.83-1.51,9.66-3.88,14.48-7.1v25.2c-4.76,3.03-9.57,5.12-14.43,6.28C1176.92,326.19,1170.79,326.77,1163.39,326.77z"/>
	<path class="st4" d="M1289.78,324.84l-5.7-14.68h-0.77c-4.96,6.24-10.06,10.57-15.3,12.99c-5.25,2.41-12.09,3.62-20.52,3.62
		c-10.36,0-18.52-2.96-24.48-8.88c-5.95-5.92-8.93-14.35-8.93-25.3c0-11.46,4.01-19.91,12.02-25.35s20.1-8.45,36.26-9.03l18.73-0.58
		v-4.73c0-10.94-5.6-16.41-16.8-16.41c-8.63,0-18.76,2.61-30.41,7.82l-9.75-19.89c12.42-6.5,26.2-9.75,41.33-9.75
		c14.48,0,25.59,3.15,33.31,9.46c7.72,6.31,11.59,15.9,11.59,28.77v71.93H1289.78z M1281.09,274.82l-11.39,0.39
		c-8.56,0.26-14.93,1.8-19.12,4.63c-4.18,2.83-6.28,7.15-6.28,12.94c0,8.3,4.76,12.46,14.29,12.46c6.82,0,12.28-1.96,16.37-5.89
		c4.09-3.93,6.13-9.14,6.13-15.64V274.82z"/>
	<path class="st4" d="M1437.31,324.84h-29.45v-63.05c0-7.79-1.3-13.63-3.91-17.52s-6.71-5.84-12.31-5.84c-7.53,0-13,2.77-16.41,8.3
		s-5.12,14.64-5.12,27.32v50.79h-29.45V216.89h22.5l3.96,13.81h1.64c2.9-4.96,7.08-8.83,12.55-11.63s11.75-4.2,18.83-4.2
		c16.16,0,27.1,5.28,32.83,15.83h2.61c2.9-5.02,7.16-8.92,12.79-11.68c5.63-2.77,11.99-4.15,19.07-4.15
		c12.23,0,21.48,3.14,27.76,9.41c6.28,6.28,9.41,16.33,9.41,30.17v70.39h-29.55v-63.05c0-7.79-1.3-13.63-3.91-17.52
		c-2.61-3.89-6.71-5.84-12.31-5.84c-7.21,0-12.6,2.57-16.17,7.72s-5.36,13.32-5.36,24.52V324.84z"/>
	<path class="st4" d="M1533.58,188.99c0-9.59,5.34-14.39,16.03-14.39c10.69,0,16.03,4.8,16.03,14.39c0,4.57-1.34,8.13-4.01,10.67
		s-6.68,3.81-12.02,3.81C1538.92,203.47,1533.58,198.64,1533.58,188.99z M1564.28,324.84h-29.45V216.89h29.45V324.84z"/>
</g>
</svg>
